<svg width="26" height="26" viewBox="0 0 26 26" fill="none" xmlns="http://www.w3.org/2000/svg">
<circle cx="13" cy="13" r="12" stroke="#7432FF" stroke-width="2"/>
<path fill-rule="evenodd" clip-rule="evenodd" d="M9.10764 12.1395L12.7109 8.53632C12.8544 8.39267 13.0873 8.39267 13.2309 8.53632L16.8342 12.1395C16.906 12.2113 16.9419 12.3053 16.9419 12.3994C16.9419 12.4935 16.906 12.5875 16.8342 12.6594C16.6907 12.803 16.4578 12.803 16.3143 12.6594L13.3387 9.68385V17.2038C13.3387 17.4069 13.174 17.5714 12.971 17.5714C12.768 17.5714 12.6033 17.4068 12.6033 17.2038V9.68382L9.62766 12.6594C9.48414 12.803 9.25128 12.803 9.10764 12.6594C8.96412 12.5157 8.96412 12.2831 9.10764 12.1395Z" fill="#7432FF"/>
</svg>
