<svg width="26" height="26" viewBox="0 0 26 26" fill="none" xmlns="http://www.w3.org/2000/svg">
<circle cx="13" cy="13" r="12" transform="rotate(-180 13 13)" stroke="#E0598A" stroke-width="2"/>
<path fill-rule="evenodd" clip-rule="evenodd" d="M16.8924 13.8605L13.2891 17.4637C13.1456 17.6073 12.9127 17.6073 12.7691 17.4637L9.16579 13.8605C9.09397 13.7887 9.05806 13.6947 9.05806 13.6006C9.05806 13.5065 9.09397 13.4125 9.16579 13.3406C9.30931 13.197 9.54217 13.197 9.68569 13.3406L12.6613 16.3161L12.6613 8.79624C12.6613 8.59315 12.826 8.42856 13.029 8.42856C13.232 8.42856 13.3967 8.59317 13.3967 8.79624L13.3967 16.3162L16.3723 13.3406C16.5159 13.197 16.7487 13.197 16.8924 13.3406C17.0359 13.4843 17.0359 13.7169 16.8924 13.8605Z" fill="#E0598A"/>
</svg>
